<svg height="60" width="120" xmlns="http://www.w3.org/2000/svg"><g transform="translate(3824.556 382.65376)"><g transform="matrix(.78642811 0 0 .78641995 -813.7498 -51.921031)"><path d="m-3805.6254-366.43409s-2.2463 1.36734 1.5627 1.758c4.5903.58598 7.032.4884 12.1107-.48832 0 0 1.3673.87898 3.223 1.56269-11.4271 4.88334-25.8817-.29308-16.8964-2.83237zm-1.4649-6.34829s-2.4417 1.85562 1.3673 2.24627c4.9811.4884 8.8877.58598 15.6267-.78132 0 0 .879.97667 2.3439 1.46502-13.771 4.10203-29.2023.39067-19.3379-2.92999zm26.9559 11.13398s1.6604 1.36737-1.8556 2.44163c-6.5437 1.95335-27.4445 2.53932-33.3044 0-2.0511-.87894 1.8556-2.14866 3.1253-2.34398 1.2697-.29297 1.9533-.29297 1.9533-.29297-2.2462-1.56269-14.943 3.22296-6.446 4.59029 23.3423 3.80901 42.5828-1.6603 36.5273-4.39499zm-24.4166-17.77534s-10.6456 2.53932-3.809 3.41831c2.93.39062 8.6923.29305 14.064-.0977 4.395-.39066 8.79-1.17198 8.79-1.17198s-1.5626.68362-2.6371 1.36737c-10.8409 2.83226-31.6439 1.56261-25.6862-1.36737 5.0786-2.44171 9.2782-2.14866 9.2782-2.14866l.0001-.00001zm19.0451 10.64563c10.9386-5.66468 5.86-11.13398 2.344-10.45027-.8791.19531-1.2697.39066-1.2697.39066s.293-.58601.9766-.78133c6.9344-2.4417 12.4038 7.32494-2.2463 11.13395 0 0 .098-.0977.1954-.29301zm-17.9707 15.43136c10.548.68371 26.663-.39067 27.0536-5.37163 0 0-.7813 1.95335-8.6923 3.41827-8.9853 1.66038-20.1193 1.46504-26.663.39066 0 0 1.3673 1.17203 8.3016 1.56269z" fill="#4e7896"/><path d="m-3792.1473-411.65376s6.0554 6.15299-5.7623 15.43135c-9.4737 7.5203-2.1487 11.81762 0 16.70094-5.567-4.98091-9.5714-9.37598-6.8367-13.478 4.0044-6.05534 15.0407-8.98528 12.599-18.65427zm-3.1252 28.03034c2.8322 3.22304-.7815 6.15308-.7815 6.15308s7.2274-3.71136 3.9067-8.30174c-3.0277-4.39494-5.3717-6.5436 7.325-13.86865 0 0-20.0216 4.98104-10.4502 16.01734z" fill="#f58219"/></g><path d="m-3749.2384-344.492v-11.67662c0-2.97883-1.668-5.00429-5.8383-5.00429-2.383 0-4.4086.59572-6.1959 1.31059l.5959 2.14469c1.3106-.47659 2.9787-.95325 4.766-.95325 2.2637 0 3.3361.95325 3.3361 2.85966v1.54895h-1.1915c-5.7192 0-8.3405 2.14469-8.3405 5.59997 0 2.85962 1.7872 4.5277 5.0042 4.5277 2.0257 0 3.5747-.95323 5.0044-2.14468l.2383 1.78727h2.6213zm-3.3362-3.81283c-1.1915 1.07233-2.5021 1.66815-3.6937 1.66815-1.5489 0-2.5021-.95318-2.5021-2.62128 0-1.66814.9532-2.85961 4.766-2.85961h1.4298v3.81275zm14.5363 3.81283h-4.1704l-5.0042-16.32349h3.5745l3.0978 10.00852.7149 2.97873c1.549-4.28933 2.7405-8.69794 3.2172-12.98725h3.5744c-.9533 5.36175-2.6212 11.19997-5.0042 16.32349zm19.3022 0v-11.67662c0-2.97883-1.6681-5.00429-5.8386-5.00429-2.3829 0-4.4083.59572-6.1956 1.31059l.4766 2.14469c1.4298-.47659 3.0978-.95325 4.8852-.95325 2.2638 0 3.3361.95325 3.3361 2.85966v1.54895h-1.1914c-5.7192 0-8.3404 2.14469-8.3404 5.59997 0 2.85962 1.668 4.5277 4.885 4.5277 2.1447 0 3.6936-.95323 5.1234-2.14468l.2383 1.78727h2.6214zm-3.3363-3.81283c-1.1914 1.07233-2.5023 1.66815-3.6937 1.66815-1.5488 0-2.5019-.95318-2.5019-2.62128 0-1.66814.9531-2.85961 4.7658-2.85961h1.4298v3.81275zm-43.7278 6.55322c-.9532 1.42977-2.383 2.50218-4.1702 3.09785l-1.5491-1.9064c1.1916-.71487 2.3831-1.78714 2.8597-2.74037.4766-.83404.5957-2.0256.5957-4.76595v-18.58728h3.5746v18.34896c0 3.69361-.3575 5.12339-1.3107 6.55322z" fill="#4e7896"/></g></svg>